<svg xmlns="http://www.w3.org/2000/svg" xmlns:xlink="http://www.w3.org/1999/xlink" xml:lang="en" height="145.79999999999998pt" width="283.832pt" viewBox="-54.23199999999999 -141.2 283.832 145.79999999999998"><circle cx="0" cy="-54" r="18" style="stroke:white;fill:none;stroke-width:2;stroke-dasharray:-;" /><path d="M 144 -108 a 4.5 4.5 0 1 1 9 0" style="stroke:white;fill:none;stroke-width:2;stroke-dasharray:-;" /><path d="M 153 -108 a 4.5 4.5 0 1 1 9 0" style="stroke:white;fill:none;stroke-width:2;stroke-dasharray:-;" /><path d="M 162 -108 a 4.5 4.5 0 1 1 9 0" style="stroke:white;fill:none;stroke-width:2;stroke-dasharray:-;" /><path d="M 171 -108 a 4.5 4.5 0 1 1 9 0" style="stroke:white;fill:none;stroke-width:2;stroke-dasharray:-;" /><path d="M 0.0,-0.0 L 0,-36 L 0,-36 M 0,-72 L 0,-72 L 0,-108" style="stroke:white;fill:none;stroke-width:2;stroke-dasharray:-;stroke-linecap:round;stroke-linejoin:round;" /><path d="M 9.000000000000004,-54.0 L 8.25,-55.863 L 7.5,-57.6 L 6.75,-59.091 L 6,-60.235 L 5.25,-60.955 L 4.5,-61.2 L 3.75,-60.955 L 3,-60.235 L 2.25,-59.091 L 1.5,-57.6 L 0.75,-55.863 L 0,-54 L -0.75,-52.137 L -1.5,-50.4 L -2.25,-48.909 L -3,-47.765 L -3.75,-47.045 L -4.5,-46.8 L -5.25,-47.045 L -6,-47.765 L -6.75,-48.909 L -7.5,-50.4 L -8.25,-52.137 L -9,-54" style="stroke:white;fill:none;stroke-width:2;stroke-dasharray:-;stroke-linecap:round;stroke-linejoin:round;" /><path d="M 6.613092715395707e-15,-108.0 L 36,-108 L 39,-117 L 45,-99 L 51,-117 L 57,-99 L 63,-117 L 69,-99 L 72,-108 L 108,-108" style="stroke:white;fill:none;stroke-width:2;stroke-dasharray:-;stroke-linecap:round;stroke-linejoin:round;" /><path d="M 108.0,-108.0 L 144,-108 M 180,-108 L 216,-108" style="stroke:white;fill:none;stroke-width:2;stroke-dasharray:-;stroke-linecap:round;stroke-linejoin:round;" /><path d="M 216.0,-108.0 L 216,-57.24 M 225,-57.24 L 207,-57.24 M 225,-50.76 L 207,-50.76 M 216,-50.76 L 216,-0" style="stroke:white;fill:none;stroke-width:2;stroke-dasharray:-;stroke-linecap:round;stroke-linejoin:round;" /><path d="M 215.99999999999997,-0.0 L 108,-0 L 0,-0" style="stroke:white;fill:none;stroke-width:2;stroke-dasharray:-;stroke-linecap:round;stroke-linejoin:round;" /><text x="-21.599999999999994" y="-70.0" dominant-baseline="central" fill="white" font-size="16" font-family="sans" text-anchor="end"><tspan x="-21.599999999999994" dy="16">V_s</tspan></text><text x="54.00000000000001" y="-136.60000000000002" dominant-baseline="ideographic" fill="white" font-size="16" font-family="sans" text-anchor="middle"><tspan x="54.00000000000001" dy="16">R = 10 \Omega</tspan></text><text x="162.0" y="-132.09997770431488" dominant-baseline="ideographic" fill="white" font-size="16" font-family="sans" text-anchor="middle"><tspan x="162.0" dy="16">L = 100 mH</tspan></text><text x="203.39999999999998" y="-70.0" dominant-baseline="central" fill="white" font-size="16" font-family="sans" text-anchor="end"><tspan x="203.39999999999998" dy="16">C = 10 \mu F</tspan></text></svg>